<svg
  width="275"
  height="50"
  viewBox="0 0 275 50"
  fill="none"
  xmlns="http://www.w3.org/2000/svg"
>
<path
    d="M259.136 15.6098C258.512 15.7193 257.932 15.5315 257.396 15.0464C257.086 14.8178 256.848 14.4479 256.681 13.9368C256.57 13.4544 256.496 12.9368 256.457 12.384C256.446 11.7747 256.464 11.1797 256.51 10.5991C256.556 10.0185 256.645 9.49483 256.775 9.02809C256.906 8.56135 257.094 7.91078 257.34 7.07639C257.586 6.24199 257.875 5.39369 258.206 4.53149C258.523 3.6267 258.868 2.80709 259.241 2.07266C259.643 1.28174 260.057 0.745927 260.484 0.465221C260.996 0.156711 261.57 0.0398621 262.208 0.114675C262.873 0.132994 263.467 0.292549 263.99 0.59334C264.541 0.837637 264.992 1.20882 265.343 1.7069C265.723 2.14849 265.883 2.63829 265.823 3.17631C265.777 3.61525 265.59 4.19498 265.259 4.9155C264.929 5.63603 264.563 6.39175 264.161 7.18267C263.746 7.931 263.351 8.67238 262.978 9.4068C262.592 10.0986 262.319 10.6353 262.161 11.0169C262.045 11.3845 261.88 11.8156 261.664 12.3102C261.491 12.7908 261.268 13.2641 260.996 13.7299C260.781 14.2245 260.516 14.6408 260.202 14.9789C259.888 15.317 259.533 15.5273 259.136 15.6098Z"
    fill="#3D315B"
  />
<path
    d="M259.252 28.5624C258.786 28.1331 258.583 27.5584 258.644 26.8385C258.637 26.4531 258.786 26.039 259.091 25.5961C259.407 25.2155 259.773 24.8418 260.188 24.4751C260.666 24.0969 261.15 23.7498 261.639 23.4339C262.128 23.118 262.598 22.8701 263.048 22.6903C263.498 22.5105 264.129 22.2651 264.942 21.9539C265.754 21.6427 266.603 21.3569 267.49 21.0966C268.401 20.7993 269.262 20.5758 270.072 20.4262C270.944 20.265 271.621 20.2688 272.104 20.4374C272.66 20.6569 273.101 21.0424 273.429 21.594C273.819 22.1341 274.052 22.703 274.131 23.3007C274.271 23.8869 274.25 24.4706 274.068 25.0521C273.947 25.622 273.655 26.0464 273.191 26.3254C272.815 26.556 272.241 26.7588 271.467 26.9339C270.694 27.1089 269.872 27.277 268.999 27.4382C268.153 27.5624 267.324 27.6994 266.514 27.849C265.729 27.9618 265.138 28.0711 264.738 28.1771C264.376 28.3085 263.933 28.4386 263.409 28.5676C262.922 28.722 262.411 28.8326 261.876 28.8993C261.352 29.0283 260.86 29.0708 260.401 29.0267C259.942 28.9827 259.559 28.8279 259.252 28.5624Z"
    fill="#3D315B"
  />
<path
    d="M256.985 39.4054C256.972 38.7719 257.246 38.2276 257.807 37.7723C258.08 37.5005 258.482 37.3211 259.013 37.234C259.506 37.1985 260.029 37.2035 260.582 37.2491C261.185 37.3316 261.771 37.4399 262.338 37.5739C262.904 37.708 263.408 37.875 263.85 38.075C264.291 38.275 264.906 38.5601 265.693 38.9304C266.48 39.3007 267.274 39.7152 268.076 40.1739C268.922 40.6253 269.679 41.0913 270.349 41.5718C271.069 42.0892 271.536 42.5802 271.748 43.0448C271.975 43.5978 272.003 44.1834 271.832 44.8017C271.712 45.4569 271.464 46.0197 271.087 46.4902C270.762 46.9976 270.326 47.3869 269.781 47.658C269.286 47.9661 268.778 48.0495 268.255 47.9082C267.828 47.7967 267.284 47.5228 266.622 47.0865C265.96 46.6502 265.269 46.1734 264.549 45.656C263.872 45.1313 263.2 44.6287 262.531 44.1483C261.906 43.6605 261.417 43.3094 261.064 43.0949C260.718 42.9246 260.317 42.6953 259.861 42.4069C259.413 42.1627 258.979 41.8706 258.56 41.5307C258.104 41.2423 257.733 40.9173 257.447 40.5556C257.16 40.194 257.006 39.8106 256.985 39.4054Z"
    fill="#3D315B"
  />
<path
    d="M32.0729 2.76207C32.4761 3.29971 32.7225 3.92696 32.8121 4.64381C32.8121 4.91263 32.7897 5.18145 32.7449 5.45027C32.7449 5.67428 32.7225 5.8983 32.6777 6.12232C32.6329 6.61515 32.3417 7.08558 31.804 7.53362C31.4904 7.75763 31.0872 7.98165 30.5944 8.20567C30.3255 8.29527 30.0343 8.36248 29.7207 8.40728C29.4519 8.40728 29.1383 8.42968 28.7798 8.47448C28.511 8.56409 28.2198 8.6089 27.9062 8.6089C27.5925 8.6089 27.2789 8.6089 26.9653 8.6089H23.9411L9.89526 8.6761V8.87772L9.82806 19.8321C10.1865 19.8321 10.5673 19.8321 10.9705 19.8321C11.4186 19.8321 11.9562 19.8097 12.5835 19.7649C14.3756 19.7649 15.9661 19.7649 17.355 19.7649C18.7887 19.7649 20.3568 19.7873 22.0593 19.8321H22.4626C22.9554 19.8321 23.4482 19.8545 23.9411 19.8993C24.4787 19.8993 25.0164 19.8993 25.554 19.8993C26.0468 19.9441 26.5397 20.0113 27.0325 20.1009C27.5253 20.1457 28.0182 20.2577 28.511 20.4369C29.3175 20.7058 29.8999 21.1314 30.2583 21.7138C30.7512 22.2963 30.9976 22.9011 30.9976 23.5284C30.9976 23.7972 30.9976 24.066 30.9976 24.3348C30.9976 24.5588 30.9528 24.8053 30.8632 25.0741C30.8184 25.4325 30.5272 25.8805 29.9895 26.4182C29.6311 26.7318 29.2055 26.9334 28.7126 27.023C28.4886 27.1126 28.2198 27.2022 27.9062 27.2918C27.6373 27.3366 27.3461 27.3814 27.0325 27.4263C26.7189 27.4711 26.4053 27.5159 26.0916 27.5607C25.8228 27.5607 25.5092 27.5607 25.1508 27.5607H22.0593L9.69365 27.6279L9.49203 43.2194V43.757C9.49203 43.981 9.46963 44.2051 9.42483 44.4291C9.42483 44.6083 9.40243 44.8099 9.35763 45.0339C9.26802 45.2579 9.17841 45.5044 9.08881 45.7732C9.044 45.9972 8.9768 46.2212 8.88719 46.4452C8.57357 47.0725 8.28235 47.4981 8.01353 47.7221C7.52069 48.0805 6.91585 48.327 6.199 48.4614C4.98931 48.7302 3.84683 48.5958 2.77155 48.0581C2.54753 47.9237 2.32352 47.7669 2.0995 47.5877C1.92029 47.3637 1.76348 47.0949 1.62907 46.7812C1.53946 46.602 1.49466 46.4676 1.49466 46.378L1.29304 45.9748C1.15863 45.7508 1.06903 45.5268 1.02422 45.3027C0.97942 45.0339 0.934617 44.7875 0.889814 44.5635C0.889814 44.3395 0.867412 44.1155 0.822609 43.8914C0.822609 43.6674 0.800207 43.4434 0.755404 43.2194C0.710601 42.861 0.710601 42.5025 0.755404 42.1441V41.0688L0.822609 35.8269L0.889814 26.1494C0.934617 24.7157 0.957019 23.2596 0.957019 21.781C0.957019 20.3025 0.957019 18.7792 0.957019 17.2111C0.912215 15.5982 0.889814 14.1645 0.889814 12.91C0.934617 11.6555 1.00182 10.289 1.09143 8.81051V8.47448C1.13623 7.98165 1.15863 7.53362 1.15863 7.13039C1.15863 6.68236 1.20344 6.23432 1.29304 5.78629C1.38265 4.80062 1.60667 3.92696 1.96509 3.1653C2.27871 2.40365 2.72675 1.86601 3.30919 1.55239C3.98124 1.14916 4.69809 0.947542 5.45974 0.947542C5.81817 0.947542 6.10939 0.969943 6.33341 1.01475V0.947542C7.13986 0.947542 7.78951 0.947542 8.28235 0.947542C8.77518 0.947542 9.24562 0.947542 9.69365 0.947542C10.1417 0.947542 10.6345 0.947542 11.1722 0.947542C11.7098 0.902739 12.4266 0.880338 13.3227 0.880338C16.907 0.835535 20.4464 0.835535 23.9411 0.880338H24.2771C24.7699 0.92514 25.2628 0.947542 25.7556 0.947542C26.2932 0.947542 26.8309 0.969943 27.3685 1.01475C27.8614 1.01475 28.3542 1.08195 28.847 1.21636C29.3399 1.30597 29.8327 1.44038 30.3255 1.61959C31.0872 1.84361 31.6696 2.22443 32.0729 2.76207Z"
    fill="#3D315B"
  />
<path
    d="M46.1822 42.9506C46.1374 43.1746 46.0926 43.3986 46.0478 43.6226C46.0478 43.8018 46.0478 44.0034 46.0478 44.2275L45.6446 45.6388C45.555 45.818 45.4878 45.93 45.443 45.9748L45.2413 46.378C45.0173 46.8709 44.6141 47.2741 44.0316 47.5877C42.9564 48.1253 41.8139 48.2598 40.6042 47.9909C39.8425 47.9013 39.2377 47.6773 38.7897 47.3189C38.3416 47.0053 38.028 46.6244 37.8488 46.1764C37.6696 45.7284 37.5352 45.2803 37.4456 44.8323C37.3112 44.3843 37.244 43.981 37.244 43.6226V5.9879C37.244 5.67428 37.244 5.40546 37.244 5.18145C37.2888 4.91263 37.3336 4.66621 37.3784 4.44219C37.4232 4.12857 37.468 3.85975 37.5128 3.63574C37.6024 3.41172 37.692 3.1653 37.7816 2.89648C37.916 2.44845 38.1624 2.09002 38.5209 1.82121C39.0585 1.41798 39.5737 1.19396 40.0666 1.14916C40.3802 1.05955 40.6714 1.01475 40.9402 1.01475C41.209 0.969943 41.5227 0.947542 41.8811 0.947542C42.5083 0.947542 43.2252 1.12675 44.0316 1.48518C44.6589 1.84361 45.1069 2.33644 45.3757 2.96369C45.8238 3.85975 46.0478 4.68861 46.0478 5.45027C46.0926 5.8983 46.115 6.57035 46.115 7.46641C46.1598 8.36248 46.1822 9.03453 46.1822 9.48256V9.75138C46.2718 11.1851 46.3166 12.574 46.3166 13.9181C46.3166 15.2174 46.2942 16.6511 46.2494 18.2192C46.2494 19.7425 46.227 21.221 46.1822 22.6547C46.1822 24.0436 46.1822 25.4325 46.1822 26.8214V40.9344C46.1822 41.1136 46.1822 41.2929 46.1822 41.4721C46.227 41.6065 46.2494 41.7633 46.2494 41.9425C46.2494 42.3905 46.227 42.7266 46.1822 42.9506Z"
    fill="#3D315B"
  />
<path
    d="M60.3519 17.9504C61.8304 17.2335 63.3761 16.7183 64.9891 16.4047C66.602 16.091 68.1925 16.0238 69.7606 16.203C71.3735 16.3823 72.9192 16.8079 74.3977 17.4799C75.921 18.152 77.3099 19.0929 78.5644 20.3025C79.5949 21.333 80.491 22.5875 81.2526 24.066C82.0143 25.4997 82.5743 26.911 82.9328 28.2999C83.6944 30.7641 83.8064 33.2507 83.2688 35.7597C82.7311 38.2686 81.8127 40.5984 80.5134 42.749C79.8861 43.7346 79.1021 44.6307 78.1612 45.4371C77.2651 46.1988 76.3019 46.8261 75.2714 47.3189C73.9273 47.9461 72.4712 48.3718 70.9031 48.5958C69.335 48.8646 67.8117 48.9318 66.3332 48.7974C63.645 48.663 61.2704 47.9909 59.2094 46.7812C57.1933 45.5716 55.558 44.0258 54.3035 42.1441C53.0938 40.2624 52.2873 38.1342 51.8841 35.7597C51.5257 33.3403 51.6825 30.8761 52.3545 28.3671C53.0714 25.6789 54.1019 23.506 55.446 21.8482C56.8349 20.1457 58.4702 18.8464 60.3519 17.9504ZM62.3681 26.9558C61.696 27.5831 61.1808 28.3671 60.8224 29.308C60.4639 30.2489 60.2399 31.2345 60.1503 32.265C60.0607 33.2507 60.1279 34.2587 60.3519 35.2892C60.6207 36.2749 61.024 37.171 61.5616 37.9774C62.0096 38.6495 62.8161 39.2095 63.981 39.6575C65.1459 40.1056 66.3556 40.3744 67.61 40.464C69.0437 40.5536 70.2982 40.1728 71.3735 39.3215C72.4488 38.4254 73.2553 37.3278 73.7929 36.0285C74.3753 34.7292 74.6442 33.3179 74.5993 31.7946C74.5545 30.2713 74.1513 28.8824 73.3897 27.6279C72.852 26.7318 72.0904 26.0822 71.1047 25.6789C70.1638 25.2309 69.1558 25.0069 68.0805 25.0069C67.05 24.9621 66.0195 25.1189 64.9891 25.4773C63.9586 25.7909 63.0849 26.2838 62.3681 26.9558Z"
    fill="#3D315B"
  />
<path
    d="M89.0274 24.5364C89.0274 23.9988 89.0274 23.394 89.0274 22.7219C89.0274 22.0051 89.0498 21.2882 89.0946 20.5714C89.1394 19.8097 89.2066 19.0929 89.2962 18.4208C89.4306 17.7039 89.6098 17.0767 89.8338 16.5391C90.1923 15.7326 90.7523 15.195 91.514 14.9262C92.2756 14.6125 93.1045 14.4781 94.0005 14.5229C94.9414 14.5229 95.6807 14.6797 96.2183 14.9934C96.7559 15.307 97.1592 15.7326 97.428 16.2702C97.6968 16.7631 97.8536 17.3455 97.8984 18.0176C97.988 18.6448 98.0328 19.3169 98.0328 20.0337C98.4361 19.3169 98.9737 18.7344 99.6458 18.2864C100.363 17.8384 101.079 17.4799 101.796 17.2111C102.513 16.9423 103.163 16.7631 103.745 16.6735C104.328 16.5391 104.664 16.4719 104.753 16.4719C105.873 16.3823 106.881 16.3599 107.778 16.4047C108.718 16.4495 109.749 16.6511 110.869 17.0095C111.586 17.2783 112.325 17.6591 113.087 18.152C113.848 18.6 114.52 19.1377 115.103 19.7649C115.685 20.3921 116.066 21.0866 116.245 21.8482C116.469 22.5651 116.38 23.3268 115.977 24.1332C115.349 25.2533 114.655 25.8133 113.893 25.8133C113.132 25.7685 112.303 25.6341 111.407 25.4101C110.914 25.3205 110.331 25.1189 109.659 24.8053C108.987 24.4916 108.405 24.29 107.912 24.2004C106.389 23.9764 105.045 24.0884 103.88 24.5364C102.715 24.9845 101.707 25.5221 100.855 26.1494C99.8698 26.911 99.0185 27.7847 98.3017 28.7703V38.4478C98.3017 39.6575 98.2793 40.912 98.2345 42.2113C98.2345 43.5106 98.0552 44.6979 97.6968 45.7732C97.3832 46.8036 96.8232 47.6549 96.0167 48.327C95.255 48.9542 94.135 49.223 92.6565 49.1334C91.85 49.0886 91.1331 48.7078 90.5059 47.9909C89.8787 47.2293 89.4978 46.49 89.3634 45.7732C89.2738 45.1011 89.2066 44.2947 89.1618 43.3538C89.117 42.4129 89.0722 41.4273 89.0274 40.3968C89.0274 39.3663 89.0274 38.3358 89.0274 37.3054C89.0274 36.2301 89.0274 35.2444 89.0274 34.3484V24.5364Z"
    fill="#3D315B"
  />
<path
    d="M125.635 20.0337C126.979 19.3617 128.39 18.8912 129.868 18.6224C131.347 18.3088 132.803 18.2416 134.237 18.4208C135.715 18.5552 137.127 18.936 138.471 19.5633C139.815 20.1457 141.069 20.997 142.234 22.1171C143.399 23.282 144.295 24.5588 144.922 25.9477C145.55 27.3366 145.998 28.8824 146.266 30.5849C146.446 31.7498 146.737 32.825 147.14 33.8107C147.543 34.7964 147.969 35.7821 148.417 36.7677C148.91 37.7534 149.358 38.7391 149.761 39.7247C150.209 40.7104 150.568 41.7409 150.836 42.8162C151.06 43.8466 150.971 44.8547 150.568 45.8404C150.209 46.7812 149.448 47.3637 148.283 47.5877C147.611 47.7221 146.961 47.6773 146.334 47.4533C145.751 47.1845 145.214 46.826 144.721 46.378C144.228 45.8852 143.78 45.3699 143.377 44.8323C143.018 44.2499 142.682 43.7122 142.369 43.2194C141.338 44.5635 140.218 45.6164 139.008 46.378C137.799 47.0949 136.343 47.5653 134.64 47.7893C133.206 47.9685 131.84 48.0133 130.541 47.9237C129.241 47.8341 127.852 47.5877 126.374 47.1845C124.447 46.6916 122.857 45.8404 121.602 44.6307C120.393 43.3762 119.452 41.9425 118.78 40.3296C118.152 38.6719 117.816 36.9021 117.772 35.0204C117.727 33.1387 117.951 31.2793 118.444 29.4424C119.071 27.023 120.012 25.0517 121.266 23.5284C122.521 22.0051 123.977 20.8402 125.635 20.0337ZM127.315 27.8967C126.687 28.5239 126.195 29.2632 125.836 30.1144C125.478 30.9657 125.254 31.8618 125.164 32.8026C125.119 33.7435 125.209 34.6844 125.433 35.6252C125.657 36.5661 126.015 37.395 126.508 38.1118C126.956 38.7391 127.718 39.2767 128.793 39.7247C129.869 40.128 130.989 40.3744 132.153 40.464C133.498 40.5536 134.662 40.1952 135.648 39.3887C136.679 38.5823 137.44 37.5742 137.933 36.3645C138.471 35.11 138.717 33.7883 138.672 32.3994C138.628 30.9657 138.247 29.6664 137.53 28.5015C136.992 27.6503 136.275 27.023 135.379 26.6198C134.528 26.2166 133.61 26.0149 132.624 26.0149C131.638 25.9701 130.653 26.127 129.667 26.4854C128.726 26.799 127.942 27.2694 127.315 27.8967Z"
    fill="#3D315B"
  />
<path
    d="M177.395 1.35077C178.247 1.12675 178.986 1.10435 179.613 1.28357C180.285 1.41798 180.845 1.7092 181.293 2.15723C181.786 2.60526 182.145 3.1653 182.369 3.83735C182.637 4.5094 182.772 5.24865 182.772 6.05511C182.817 8.29527 182.817 10.0426 182.772 11.2971C182.772 12.5516 182.772 13.6493 182.772 14.5901V35.222C182.772 37.6414 182.772 39.6575 182.772 41.2705C182.772 42.8834 182.682 44.2051 182.503 45.2355C182.369 46.2212 182.1 46.9605 181.697 47.4533C181.338 47.9461 180.778 48.2822 180.016 48.4614C179.255 48.6854 178.247 48.7974 176.992 48.7974C175.783 48.7974 174.259 48.7974 172.422 48.7974C167.584 48.7974 163.753 47.6549 160.93 45.3699C158.152 43.085 156.674 39.4559 156.495 34.4828C156.405 32.3322 156.674 30.3609 157.301 28.5687C157.928 26.7766 158.847 25.2533 160.057 23.9988C161.311 22.6995 162.834 21.7138 164.627 21.0418C166.463 20.3249 168.547 19.9889 170.877 20.0337H174.573V8.00405C174.573 7.2872 174.573 6.59275 174.573 5.9207C174.573 5.20385 174.64 4.5542 174.774 3.97176C174.909 3.34452 175.178 2.80688 175.581 2.35885C175.984 1.91081 176.589 1.57479 177.395 1.35077ZM165.702 38.6495C166.643 39.9488 168.345 40.6656 170.809 40.8C171.302 40.8448 171.773 40.8672 172.221 40.8672C172.669 40.8224 173.072 40.7552 173.43 40.6656C173.834 40.6208 174.214 40.5536 174.573 40.464V28.0311C173.005 27.7623 171.571 27.6055 170.272 27.5607C169.017 27.4711 167.763 27.9191 166.508 28.9048C165.836 29.4424 165.321 30.1368 164.963 30.9881C164.604 31.7946 164.403 32.6682 164.358 33.6091C164.313 34.5052 164.403 35.4012 164.627 36.2973C164.851 37.1934 165.209 37.9774 165.702 38.6495Z"
    fill="#F8F991"
  />
<path
    d="M211.445 39.1199C211.983 38.9855 212.52 38.8959 213.058 38.8511C213.641 38.8063 214.156 38.8735 214.604 39.0527C215.097 39.2319 215.5 39.5455 215.814 39.9936C216.127 40.3968 216.284 40.9792 216.284 41.7409C216.284 42.2785 216.15 42.7938 215.881 43.2866C215.612 43.7794 215.276 44.2275 214.873 44.6307C214.469 45.0339 214.021 45.3923 213.529 45.706C213.036 45.9748 212.565 46.1988 212.117 46.378C210.818 46.9605 209.317 47.4085 207.615 47.7221C205.957 48.0357 204.232 48.1477 202.44 48.0581C200.02 47.9685 197.691 47.4981 195.45 46.6468C193.255 45.7508 191.53 44.2947 190.276 42.2785C189.111 40.3072 188.416 38.1118 188.192 35.6924C187.968 33.2731 188.08 30.9881 188.528 28.8376C189.021 26.239 189.85 24.1332 191.015 22.5203C192.225 20.8626 193.658 19.5409 195.316 18.5552C197.332 17.3903 199.595 16.7855 202.104 16.7407C204.613 16.6959 207.01 17.1887 209.295 18.2192C210.818 18.8912 212.184 19.8097 213.394 20.9746C214.604 22.0947 215.522 23.4612 216.15 25.0741C216.329 25.4773 216.463 25.9701 216.553 26.5526C216.687 27.135 216.777 27.7623 216.822 28.4343C216.866 29.0616 216.866 29.6888 216.822 30.3161C216.777 30.9433 216.665 31.5033 216.486 31.9962C216.217 32.8026 215.881 33.4299 215.477 33.8779C215.074 34.326 214.559 34.662 213.932 34.886C213.305 35.11 212.543 35.2668 211.647 35.3564C210.796 35.4012 209.765 35.446 208.555 35.4908C207.48 35.5356 206.472 35.558 205.531 35.558C204.59 35.558 203.627 35.558 202.641 35.558C201.656 35.5132 200.625 35.4908 199.55 35.4908C198.519 35.446 197.355 35.4012 196.055 35.3564C195.921 36.2525 196.033 37.0365 196.391 37.7086C196.795 38.3358 197.332 38.8735 198.004 39.3215C198.676 39.7247 199.438 40.0384 200.289 40.2624C201.14 40.4864 201.969 40.6208 202.776 40.6656C204.299 40.7552 205.755 40.6432 207.144 40.3296C208.533 39.9712 209.967 39.5679 211.445 39.1199ZM208.555 26.0822C207.704 25.0965 206.808 24.3796 205.867 23.9316C205.15 23.618 204.389 23.4836 203.582 23.5284C202.821 23.5284 202.081 23.6404 201.364 23.8644C200.065 24.178 198.968 24.8501 198.071 25.8805C197.982 25.9701 197.825 26.1942 197.601 26.5526C197.377 26.8662 197.153 27.2022 196.929 27.5607C196.75 27.9191 196.615 28.2551 196.526 28.5687C196.436 28.8824 196.481 29.0392 196.66 29.0392H209.832C209.787 28.4119 209.675 27.8967 209.496 27.4935C209.317 27.0454 209.003 26.575 208.555 26.0822Z"
    fill="#F8F991"
  />
<path
    d="M242.464 35.4908C242.957 36.1181 243.629 36.9245 244.481 37.9102C245.377 38.8511 246.206 39.8591 246.967 40.9344C247.774 41.9649 248.423 42.9954 248.916 44.0258C249.409 45.0563 249.543 45.9524 249.319 46.714C248.961 47.8789 248.289 48.551 247.303 48.7302C246.318 48.9094 245.287 48.7302 244.212 48.1925C243.45 47.8341 242.576 47.2069 241.591 46.3108C240.605 45.4147 239.642 44.4739 238.701 43.4882C237.805 42.5025 236.998 41.5841 236.282 40.7328C235.565 39.8367 235.072 39.2095 234.803 38.8511C234.803 38.8063 234.781 38.7839 234.736 38.7839C234.736 38.7839 234.736 38.7615 234.736 38.7167C234.422 39.0751 234.109 39.4783 233.795 39.9264C233.481 40.3296 233.145 40.7328 232.787 41.136C232.339 41.6737 231.824 42.3233 231.241 43.085C230.704 43.8018 230.099 44.5187 229.427 45.2355C228.799 45.9524 228.127 46.6244 227.411 47.2517C226.739 47.8341 226.066 48.2598 225.394 48.5286C224.498 48.887 223.625 48.8198 222.773 48.327C221.967 47.8789 221.452 47.2517 221.228 46.4452C220.959 45.5044 221.026 44.5187 221.429 43.4882C221.833 42.4577 222.37 41.4721 223.042 40.5312C223.714 39.5455 224.431 38.6047 225.193 37.7086C225.999 36.8125 226.649 36.0285 227.142 35.3564C227.635 34.7292 228.06 34.1915 228.419 33.7435C228.822 33.2507 229.203 32.7802 229.561 32.3322C228.934 31.6602 228.262 30.9209 227.545 30.1144C226.828 29.2632 225.82 28.1655 224.521 26.8214C224.073 26.3286 223.58 25.7909 223.042 25.2085C222.505 24.5812 222.012 23.9316 221.564 23.2596C221.116 22.5875 220.757 21.8931 220.488 21.1762C220.22 20.4593 220.152 19.7201 220.287 18.9584C220.421 18.2864 220.712 17.7488 221.161 17.3455C221.609 16.8975 222.146 16.6063 222.773 16.4719C223.401 16.2926 224.05 16.2702 224.722 16.4047C225.394 16.5391 226.022 16.8079 226.604 17.2111C227.769 18.0624 228.867 19.1153 229.897 20.3697C230.928 21.6242 231.936 22.8115 232.921 23.9316C233.235 24.3348 233.526 24.7157 233.795 25.0741C234.109 25.3877 234.4 25.7013 234.669 26.0149C234.893 25.6565 235.162 25.2981 235.475 24.9397C235.834 24.5812 236.192 24.1556 236.55 23.6628C237.446 22.5875 238.343 21.4674 239.239 20.3025C240.179 19.1377 241.21 18.1296 242.33 17.2783C242.912 16.8303 243.517 16.5615 244.145 16.4719C244.817 16.3375 245.444 16.3599 246.026 16.5391C246.609 16.6735 247.124 16.9423 247.572 17.3455C248.02 17.7488 248.311 18.2416 248.446 18.824C248.625 19.5409 248.602 20.2577 248.378 20.9746C248.199 21.6914 247.886 22.3859 247.438 23.0579C247.034 23.73 246.564 24.3796 246.026 25.0069C245.533 25.5893 245.063 26.127 244.615 26.6198C243.585 27.7399 242.688 28.7479 241.927 29.644C241.165 30.5401 240.448 31.3913 239.776 32.1978C240.179 32.6458 240.583 33.1387 240.986 33.6763C241.434 34.1691 241.927 34.774 242.464 35.4908Z"
    fill="#F8F991"
  />
</svg>
